{"asset":{"version":"2.0","generator":"Blockbench 5.0.7 glTF exporter"},"scenes":[{"nodes":[0,21],"name":"blockbench_export"}],"scene":0,"nodes":[{"name":"sphere","mesh":0},{"translation":[0,-0.11979166666666663,0],"name":"body_mesh","mesh":1},{"translation":[0,-0.171875,0],"name":"left_leg_mesh","mesh":2},{"translation":[0,-0.1875,0],"name":"left_feet_mesh","mesh":3},{"translation":[0,-0.109375,0],"name":"left_feet","children":[3]},{"translation":[0,-0.16666666666666663,-0.09375],"name":"left_leg","children":[2,4]},{"translation":[0,-0.171875,0],"name":"right_leg_mesh","mesh":4},{"translation":[0,-0.1875,0],"name":"right_feet_mesh","mesh":5},{"translation":[0,-0.109375,0],"name":"right_feet","children":[7]},{"translation":[0,-0.16666666666666663,0.09375],"name":"right_leg","children":[6,8]},{"translation":[0,0.109375,0],"name":"head_mesh","mesh":6},{"translation":[0,0.17708333333333337,0],"name":"head","children":[10]},{"translation":[0,-0.09375,0.0625],"name":"right_arm_mesh","mesh":7},{"translation":[0,-0.09375,0.0625],"name":"right_hand_mesh","mesh":8},{"translation":[0,0,0.125],"name":"right_hand","children":[13]},{"translation":[0,0.09895833333333337,0.125],"name":"right_arm","children":[12,14]},{"rotation":[0,-1,0,6.123233995736766e-17],"translation":[0,-0.09375,-0.0625],"name":"left_arm_mesh","mesh":9},{"rotation":[0,-1,0,6.123233995736766e-17],"translation":[0,-0.09375,-0.0625],"name":"left_hand_mesh","mesh":10},{"translation":[0,0,-0.125],"name":"left_hand","children":[17]},{"translation":[0,0.09895833333333337,-0.125],"name":"left_arm","children":[16,18]},{"translation":[0,0.33854166666666663,0],"name":"body","children":[1,5,9,11,15,19]},{"rotation":[0,0.7071067811865475,0,0.7071067811865476],"translation":[0,0.5625,0],"name":"character","children":[20]}],"bufferViews":[{"buffer":0,"byteOffset":0,"byteLength":3168,"target":34962,"byteStride":12},{"buffer":0,"byteOffset":3168,"byteLength":3168,"target":34962,"byteStride":12},{"buffer":0,"byteOffset":6336,"byteLength":2112,"target":34962,"byteStride":8},{"buffer":0,"byteOffset":8448,"byteLength":720,"target":34963},{"buffer":0,"byteOffset":9168,"byteLength":1152,"target":34962,"byteStride":12},{"buffer":0,"byteOffset":10320,"byteLength":1152,"target":34962,"byteStride":12},{"buffer":0,"byteOffset":11472,"byteLength":768,"target":34962,"byteStride":8},{"buffer":0,"byteOffset":12240,"byteLength":264,"target":34963},{"buffer":0,"byteOffset":12504,"byteLength":1152,"target":34962,"byteStride":12},{"buffer":0,"byteOffset":13656,"byteLength":1152,"target":34962,"byteStride":12},{"buffer":0,"byteOffset":14808,"byteLength":768,"target":34962,"byteStride":8},{"buffer":0,"byteOffset":15576,"byteLength":264,"target":34963},{"buffer":0,"byteOffset":15840,"byteLength":1152,"target":34962,"byteStride":12},{"buffer":0,"byteOffset":16992,"byteLength":1152,"target":34962,"byteStride":12},{"buffer":0,"byteOffset":18144,"byteLength":768,"target":34962,"byteStride":8},{"buffer":0,"byteOffset":18912,"byteLength":264,"target":34963},{"buffer":0,"byteOffset":19176,"byteLength":1152,"target":34962,"byteStride":12},{"buffer":0,"byteOffset":20328,"byteLength":1152,"target":34962,"byteStride":12},{"buffer":0,"byteOffset":21480,"byteLength":768,"target":34962,"byteStride":8},{"buffer":0,"byteOffset":22248,"byteLength":264,"target":34963},{"buffer":0,"byteOffset":22512,"byteLength":1152,"target":34962,"byteStride":12},{"buffer":0,"byteOffset":23664,"byteLength":1152,"target":34962,"byteStride":12},{"buffer":0,"byteOffset":24816,"byteLength":768,"target":34962,"byteStride":8},{"buffer":0,"byteOffset":25584,"byteLength":264,"target":34963},{"buffer":0,"byteOffset":25848,"byteLength":3168,"target":34962,"byteStride":12},{"buffer":0,"byteOffset":29016,"byteLength":3168,"target":34962,"byteStride":12},{"buffer":0,"byteOffset":32184,"byteLength":2112,"target":34962,"byteStride":8},{"buffer":0,"byteOffset":34296,"byteLength":720,"target":34963},{"buffer":0,"byteOffset":35016,"byteLength":1152,"target":34962,"byteStride":12},{"buffer":0,"byteOffset":36168,"byteLength":1152,"target":34962,"byteStride":12},{"buffer":0,"byteOffset":37320,"byteLength":768,"target":34962,"byteStride":8},{"buffer":0,"byteOffset":38088,"byteLength":264,"target":34963},{"buffer":0,"byteOffset":38352,"byteLength":1152,"target":34962,"byteStride":12},{"buffer":0,"byteOffset":39504,"byteLength":1152,"target":34962,"byteStride":12},{"buffer":0,"byteOffset":40656,"byteLength":768,"target":34962,"byteStride":8},{"buffer":0,"byteOffset":41424,"byteLength":264,"target":34963},{"buffer":0,"byteOffset":41688,"byteLength":1152,"target":34962,"byteStride":12},{"buffer":0,"byteOffset":42840,"byteLength":1152,"target":34962,"byteStride":12},{"buffer":0,"byteOffset":43992,"byteLength":768,"target":34962,"byteStride":8},{"buffer":0,"byteOffset":44760,"byteLength":264,"target":34963},{"buffer":0,"byteOffset":45024,"byteLength":1152,"target":34962,"byteStride":12},{"buffer":0,"byteOffset":46176,"byteLength":1152,"target":34962,"byteStride":12},{"buffer":0,"byteOffset":47328,"byteLength":768,"target":34962,"byteStride":8},{"buffer":0,"byteOffset":48096,"byteLength":264,"target":34963},{"buffer":0,"byteOffset":48360,"byteLength":156},{"buffer":0,"byteOffset":48516,"byteLength":624},{"buffer":0,"byteOffset":49140,"byteLength":156},{"buffer":0,"byteOffset":49296,"byteLength":624},{"buffer":0,"byteOffset":49920,"byteLength":8},{"buffer":0,"byteOffset":49928,"byteLength":24},{"buffer":0,"byteOffset":49952,"byteLength":156},{"buffer":0,"byteOffset":50108,"byteLength":624},{"buffer":0,"byteOffset":50732,"byteLength":156},{"buffer":0,"byteOffset":50888,"byteLength":624},{"buffer":0,"byteOffset":51512,"byteLength":8},{"buffer":0,"byteOffset":51520,"byteLength":24},{"buffer":0,"byteOffset":51544,"byteLength":156},{"buffer":0,"byteOffset":51700,"byteLength":624},{"buffer":0,"byteOffset":52324,"byteLength":8},{"buffer":0,"byteOffset":52332,"byteLength":24},{"buffer":0,"byteOffset":52356,"byteLength":156},{"buffer":0,"byteOffset":52512,"byteLength":624},{"buffer":0,"byteOffset":53136,"byteLength":156},{"buffer":0,"byteOffset":53292,"byteLength":624},{"buffer":0,"byteOffset":53916,"byteLength":156},{"buffer":0,"byteOffset":54072,"byteLength":624}],"buffers":[{"byteLength":54696,"uri":"data:application/octet-stream;base64,"}],"accessors":[{"bufferView":0,"componentType":5126,"count":264,"max":[0.5,0.5625,0.5],"min":[-0.5,-0.515625,-0.5],"type":"VEC3"},{"bufferView":1,"componentType":5126,"count":264,"max":[0.9971457719802856,0.9238318800926208,0.9660868048667908],"min":[-0.9659258127212524,-0.954883873462677,-0.9963383078575134],"type":"VEC3"},{"bufferView":2,"componentType":5126,"count":264,"max":[0.26794999837875366,0.25882500410079956],"min":[0,0],"type":"VEC2"},{"bufferView":3,"componentType":5123,"count":360,"max":[263],"min":[0],"type":"SCALAR"},{"bufferView":4,"componentType":5126,"count":96,"max":[0.09375,0.296875,0.125],"min":[-0.09375,-0.046875,-0.125],"type":"VEC3"},{"bufferView":5,"componentType":5126,"count":96,"max":[1,1,1],"min":[-1,-1,-1],"type":"VEC3"},{"bufferView":6,"componentType":5126,"count":96,"max":[0.1875,0.1875],"min":[0,0],"type":"VEC2"},{"bufferView":7,"componentType":5123,"count":132,"max":[95],"min":[0],"type":"SCALAR"},{"bufferView":8,"componentType":5126,"count":96,"max":[0.0625,0.1875,0.0625],"min":[-0.0625,0.0625,-0.0625],"type":"VEC3"},{"bufferView":9,"componentType":5126,"count":96,"max":[1,1,1],"min":[-1,-1,-1],"type":"VEC3"},{"bufferView":10,"componentType":5126,"count":96,"max":[0.0625,0.1875],"min":[0,0],"type":"VEC2"},{"bufferView":11,"componentType":5123,"count":132,"max":[95],"min":[0],"type":"SCALAR"},{"bufferView":12,"componentType":5126,"count":96,"max":[0.0625,0.1875,0.0625],"min":[-0.0625,0.0625,-0.0625],"type":"VEC3"},{"bufferView":13,"componentType":5126,"count":96,"max":[1,1,1],"min":[-1,-1,-1],"type":"VEC3"},{"bufferView":14,"componentType":5126,"count":96,"max":[0.0625,0.1875],"min":[0,0],"type":"VEC2"},{"bufferView":15,"componentType":5123,"count":132,"max":[95],"min":[0],"type":"SCALAR"},{"bufferView":16,"componentType":5126,"count":96,"max":[0.0625,0.1875,0.0625],"min":[-0.0625,0.0625,-0.0625],"type":"VEC3"},{"bufferView":17,"componentType":5126,"count":96,"max":[1,1,1],"min":[-1,-1,-1],"type":"VEC3"},{"bufferView":18,"componentType":5126,"count":96,"max":[0.0625,0.1875],"min":[0,0],"type":"VEC2"},{"bufferView":19,"componentType":5123,"count":132,"max":[95],"min":[0],"type":"SCALAR"},{"bufferView":20,"componentType":5126,"count":96,"max":[0.0625,0.1875,0.0625],"min":[-0.0625,0.0625,-0.0625],"type":"VEC3"},{"bufferView":21,"componentType":5126,"count":96,"max":[1,1,1],"min":[-1,-1,-1],"type":"VEC3"},{"bufferView":22,"componentType":5126,"count":96,"max":[0.0625,0.1875],"min":[0,0],"type":"VEC2"},{"bufferView":23,"componentType":5123,"count":132,"max":[95],"min":[0],"type":"SCALAR"},{"bufferView":24,"componentType":5126,"count":264,"max":[0.125,0.125,0.125],"min":[-0.125,-0.125,-0.125],"type":"VEC3"},{"bufferView":25,"componentType":5126,"count":264,"max":[0.9659258127212524,0.9659258127212524,0.9659258127212524],"min":[-0.9659258127212524,-0.9659258127212524,-0.9659258127212524],"type":"VEC3"},{"bufferView":26,"componentType":5126,"count":264,"max":[0.06698749959468842,0.06470000743865967],"min":[0,0],"type":"VEC2"},{"bufferView":27,"componentType":5123,"count":360,"max":[263],"min":[0],"type":"SCALAR"},{"bufferView":28,"componentType":5126,"count":96,"max":[0.046875,0.140625,0.0625],"min":[-0.046875,0.046875,-0.0625],"type":"VEC3"},{"bufferView":29,"componentType":5126,"count":96,"max":[1,1,1],"min":[-1,-1,-1],"type":"VEC3"},{"bufferView":30,"componentType":5126,"count":96,"max":[0.0625,0.125],"min":[0,0],"type":"VEC2"},{"bufferView":31,"componentType":5123,"count":132,"max":[95],"min":[0],"type":"SCALAR"},{"bufferView":32,"componentType":5126,"count":96,"max":[0.046875,0.140625,0.0625],"min":[-0.046875,0.046875,-0.0625],"type":"VEC3"},{"bufferView":33,"componentType":5126,"count":96,"max":[1,1,1],"min":[-1,-1,-1],"type":"VEC3"},{"bufferView":34,"componentType":5126,"count":96,"max":[0.0625,0.125],"min":[0,0],"type":"VEC2"},{"bufferView":35,"componentType":5123,"count":132,"max":[95],"min":[0],"type":"SCALAR"},{"bufferView":36,"componentType":5126,"count":96,"max":[0.046875,0.140625,0.0625],"min":[-0.046875,0.046875,-0.0625],"type":"VEC3"},{"bufferView":37,"componentType":5126,"count":96,"max":[1,1,1],"min":[-1,-1,-1],"type":"VEC3"},{"bufferView":38,"componentType":5126,"count":96,"max":[0.0625,0.125],"min":[0,0],"type":"VEC2"},{"bufferView":39,"componentType":5123,"count":132,"max":[95],"min":[0],"type":"SCALAR"},{"bufferView":40,"componentType":5126,"count":96,"max":[0.046875,0.140625,0.0625],"min":[-0.046875,0.046875,-0.0625],"type":"VEC3"},{"bufferView":41,"componentType":5126,"count":96,"max":[1,1,1],"min":[-1,-1,-1],"type":"VEC3"},{"bufferView":42,"componentType":5126,"count":96,"max":[0.0625,0.125],"min":[0,0],"type":"VEC2"},{"bufferView":43,"componentType":5123,"count":132,"max":[95],"min":[0],"type":"SCALAR"},{"bufferView":44,"componentType":5126,"count":39,"max":[2],"min":[0],"type":"SCALAR"},{"bufferView":45,"componentType":5126,"count":39,"max":[0.016145773231983185,0.012958352454006672,-0.6257893443107605,0.7798844575881958],"min":[-0.016145773231983185,-0.012958352454006672,-0.6259234547615051,0.7797173261642456],"type":"VEC4"},{"bufferView":46,"componentType":5126,"count":39,"max":[2],"min":[0],"type":"SCALAR"},{"bufferView":47,"componentType":5126,"count":39,"max":[0.01845341920852661,0.009446874260902405,0.4617486000061035,0.8968727588653564],"min":[-0.01845341920852661,-0.009446874260902405,0.44228869676589966,0.8870108127593994],"type":"VEC4"},{"bufferView":48,"componentType":5126,"count":2,"max":[2],"min":[0],"type":"SCALAR"},{"bufferView":49,"componentType":5126,"count":2,"max":[0,-0.1979166716337204,-0.09375],"min":[0,-0.1979166716337204,-0.09375],"type":"VEC3"},{"bufferView":50,"componentType":5126,"count":39,"max":[2],"min":[0],"type":"SCALAR"},{"bufferView":51,"componentType":5126,"count":39,"max":[0.01792912930250168,0.010351387783885002,-0.49989283084869385,0.8660253882408142],"min":[-0.01792912930250168,-0.010351387783885002,-0.5,0.8658397793769836],"type":"VEC4"},{"bufferView":52,"componentType":5126,"count":39,"max":[2],"min":[0],"type":"SCALAR"},{"bufferView":53,"componentType":5126,"count":39,"max":[0.009446874260902405,0.01845341920852661,0.8968727588653564,0.4617486000061035],"min":[-0.009446874260902405,-0.01845341920852661,0.8870108127593994,0.44228869676589966],"type":"VEC4"},{"bufferView":54,"componentType":5126,"count":2,"max":[2],"min":[0],"type":"SCALAR"},{"bufferView":55,"componentType":5126,"count":2,"max":[0.0625,-0.1666666716337204,0.09375],"min":[0.0625,-0.1666666716337204,0.09375],"type":"VEC3"},{"bufferView":56,"componentType":5126,"count":39,"max":[2],"min":[0],"type":"SCALAR"},{"bufferView":57,"componentType":5126,"count":39,"max":[0.019015034660696983,0.008228214457631111,-0.3826834261417389,0.9238795042037964],"min":[-0.019015034660696983,-0.008228214457631111,-0.40274667739868164,0.9153114557266235],"type":"VEC4"},{"bufferView":58,"componentType":5126,"count":2,"max":[2],"min":[0],"type":"SCALAR"},{"bufferView":59,"componentType":5126,"count":2,"max":[0,0.2291666716337204,0],"min":[0,0.2291666716337204,0],"type":"VEC3"},{"bufferView":60,"componentType":5126,"count":39,"max":[2],"min":[0],"type":"SCALAR"},{"bufferView":61,"componentType":5126,"count":39,"max":[0.01963683031499386,0.006549449171870947,0.3214394748210907,0.9537169337272644],"min":[-0.01963683031499386,-0.006549449171870947,0.30070579051971436,0.9469301104545593],"type":"VEC4"},{"bufferView":62,"componentType":5126,"count":39,"max":[2],"min":[0],"type":"SCALAR"},{"bufferView":63,"componentType":5126,"count":39,"max":[0.335834801197052,0.22507193684577942,0.07786758989095688,0.9405819177627563],"min":[0.295681893825531,0.1440502107143402,0.04821883514523506,0.9152085185050964],"type":"VEC4"},{"bufferView":64,"componentType":5126,"count":39,"max":[2],"min":[0],"type":"SCALAR"},{"bufferView":65,"componentType":5126,"count":39,"max":[-0.13930357992649078,-0.27445217967033386,-0.09609244763851166,0.9426234364509583],"min":[-0.185478076338768,-0.35547390580177307,-0.1188778504729271,0.9131261706352234],"type":"VEC4"}],"materials":[{"pbrMetallicRoughness":{"metallicFactor":0,"roughnessFactor":1},"alphaMode":"MASK","alphaCutoff":0.05,"doubleSided":true},{"pbrMetallicRoughness":{"metallicFactor":0,"roughnessFactor":1},"alphaMode":"MASK","alphaCutoff":0.05,"doubleSided":true},{"pbrMetallicRoughness":{"metallicFactor":0,"roughnessFactor":1},"alphaMode":"MASK","alphaCutoff":0.05,"doubleSided":true},{"pbrMetallicRoughness":{"metallicFactor":0,"roughnessFactor":1},"alphaMode":"MASK","alphaCutoff":0.05,"doubleSided":true}],"meshes":[{"primitives":[{"mode":4,"attributes":{"POSITION":0,"NORMAL":1,"TEXCOORD_0":2},"indices":3,"material":0}]},{"primitives":[{"mode":4,"attributes":{"POSITION":4,"NORMAL":5,"TEXCOORD_0":6},"indices":7,"material":0}]},{"primitives":[{"mode":4,"attributes":{"POSITION":8,"NORMAL":9,"TEXCOORD_0":10},"indices":11,"material":1}]},{"primitives":[{"mode":4,"attributes":{"POSITION":12,"NORMAL":13,"TEXCOORD_0":14},"indices":15,"material":1}]},{"primitives":[{"mode":4,"attributes":{"POSITION":16,"NORMAL":17,"TEXCOORD_0":18},"indices":19,"material":1}]},{"primitives":[{"mode":4,"attributes":{"POSITION":20,"NORMAL":21,"TEXCOORD_0":22},"indices":23,"material":1}]},{"primitives":[{"mode":4,"attributes":{"POSITION":24,"NORMAL":25,"TEXCOORD_0":26},"indices":27,"material":2}]},{"primitives":[{"mode":4,"attributes":{"POSITION":28,"NORMAL":29,"TEXCOORD_0":30},"indices":31,"material":3}]},{"primitives":[{"mode":4,"attributes":{"POSITION":32,"NORMAL":33,"TEXCOORD_0":34},"indices":35,"material":3}]},{"primitives":[{"mode":4,"attributes":{"POSITION":36,"NORMAL":37,"TEXCOORD_0":38},"indices":39,"material":3}]},{"primitives":[{"mode":4,"attributes":{"POSITION":40,"NORMAL":41,"TEXCOORD_0":42},"indices":43,"material":3}]}],"animations":[{"name":"Idle","samplers":[{"input":44,"output":45,"interpolation":"LINEAR"},{"input":46,"output":47,"interpolation":"LINEAR"},{"input":48,"output":49,"interpolation":"LINEAR"},{"input":50,"output":51,"interpolation":"LINEAR"},{"input":52,"output":53,"interpolation":"LINEAR"},{"input":54,"output":55,"interpolation":"LINEAR"},{"input":56,"output":57,"interpolation":"LINEAR"},{"input":58,"output":59,"interpolation":"LINEAR"},{"input":60,"output":61,"interpolation":"LINEAR"},{"input":62,"output":63,"interpolation":"LINEAR"},{"input":64,"output":65,"interpolation":"LINEAR"}],"channels":[{"sampler":0,"target":{"node":4,"path":"rotation"}},{"sampler":1,"target":{"node":5,"path":"rotation"}},{"sampler":2,"target":{"node":5,"path":"translation"}},{"sampler":3,"target":{"node":8,"path":"rotation"}},{"sampler":4,"target":{"node":9,"path":"rotation"}},{"sampler":5,"target":{"node":9,"path":"translation"}},{"sampler":6,"target":{"node":20,"path":"rotation"}},{"sampler":7,"target":{"node":20,"path":"translation"}},{"sampler":8,"target":{"node":11,"path":"rotation"}},{"sampler":9,"target":{"node":15,"path":"rotation"}},{"sampler":10,"target":{"node":19,"path":"rotation"}}]}]}